<svg xmlns="http://www.w3.org/2000/svg" width="60" height="30" viewBox="0 0 60 30">
    <g fill="none" fill-rule="evenodd">
        <rect width="59" height="24" x=".5" y="5.5" stroke="#979797" rx="5"/>
        <path fill="#EEE" d="M4 2c0-1.105.897-2 2.004-2h42.992C50.103 0 51 .887 51 2v6c0 1.105-.897 2-2.004 2H6.004A1.997 1.997 0 0 1 4 8V2z"/>
        <text fill="#4A4A4A" font-family="Muli-Light, Muli" font-size="8" font-weight="300" transform="translate(4)">
            <tspan x="1.436" y="8">Powered By</tspan>
        </text>
        <g>
            <g stroke="#9B9B9B" stroke-width=".56" transform="translate(4 13)">
                <circle cx="7" cy="7" r="7"/>
                <path d="M5.5 12a5.5 5.5 0 1 0 0-11 5.5 5.5 0 0 0 0 11z"/>
            </g>
            <text fill="#4A4A4A" font-family="Adequate-ExtraLight, Adequate" font-size="9" font-weight="300" transform="translate(4 13)">
                <tspan x="16" y="11">Omoto</tspan>
            </text>
        </g>
    </g>
</svg>
